<?xml version="1.0" standalone="no"?>
<!DOCTYPE svg PUBLIC "-//W3C//DTD SVG 20010904//EN"
 "http://www.w3.org/TR/2001/REC-SVG-20010904/DTD/svg10.dtd">
<svg version="1.0" xmlns="http://www.w3.org/2000/svg"
 width="1920.000000pt" height="545.000000pt" viewBox="0 0 1920.000000 545.000000"
 preserveAspectRatio="xMidYMid meet">

<g transform="translate(0.000000,545.000000) scale(0.100000,-0.100000)"
fill="#000000" stroke="none">
<path d="M11456 5404 c-3 -26 -6 -302 -7 -613 l0 -566 -64 -53 c-35 -29 -70
-55 -78 -57 -9 -4 -54 61 -141 205 -71 117 -135 214 -144 217 -8 4 -22 2 -31
-4 -9 -6 -64 -93 -123 -194 -59 -101 -111 -185 -115 -186 -4 -1 -77 128 -162
287 -84 159 -161 292 -170 295 -9 4 -22 -1 -31 -13 -9 -11 -49 -192 -99 -448
-46 -236 -105 -537 -131 -669 -44 -218 -47 -242 -34 -267 13 -25 20 -28 65
-28 l51 0 -36 -41 c-38 -41 -216 -306 -236 -350 -6 -13 -20 -39 -30 -58 -13
-24 -16 -39 -10 -47 7 -7 7 -20 1 -35 l-9 -24 -10 25 c-9 23 -10 22 -9 -12 1
-34 5 -39 51 -65 28 -15 67 -33 86 -40 40 -14 60 -37 60 -70 0 -13 6 -23 14
-23 16 0 117 -40 131 -52 6 -6 5 -12 -3 -17 -8 -5 -18 -42 -24 -84 -11 -74
-10 -76 16 -107 16 -20 26 -43 26 -64 0 -39 36 -79 50 -56 5 8 3 21 -3 32 -9
14 -8 30 9 75 19 54 23 59 70 75 27 10 50 18 52 18 1 0 2 -8 2 -18 0 -21 43
-63 83 -80 30 -13 126 -15 167 -3 32 9 39 40 11 48 -23 6 -29 23 -8 23 6 0 35
-11 62 -24 56 -25 103 -20 91 10 -7 19 18 71 42 82 18 9 120 8 129 -2 10 -10
53 -7 53 4 0 15 27 12 60 -5 18 -9 30 -24 30 -35 0 -15 7 -20 25 -20 18 0 28
-7 35 -26 8 -21 15 -25 34 -20 13 3 41 8 62 12 21 3 44 9 49 12 22 15 304 -1
444 -24 80 -13 146 -22 149 -19 11 11 14 146 3 175 -9 27 -8 30 3 21 7 -6 16
-8 19 -4 12 11 8 68 -5 81 -10 10 -10 15 1 21 9 6 10 11 2 15 -6 4 -17 4 -23
0 -8 -5 -7 -1 2 10 14 17 15 17 31 -3 10 -12 20 -21 22 -21 3 0 17 25 31 57
24 52 25 57 10 74 -10 11 -13 23 -8 31 5 7 7 21 6 31 -4 22 30 23 48 2 11 -14
22 -6 79 53 36 38 79 79 95 91 39 29 28 36 -36 23 -31 -6 -61 -6 -75 -1 -13 5
-36 6 -53 3 -20 -4 -34 -1 -45 10 -13 12 -21 14 -37 5 -30 -16 -72 -14 -170
10 -49 12 -136 24 -195 26 -59 3 -110 10 -113 15 -7 11 -272 15 -370 6 -30 -3
-82 -8 -115 -11 -33 -3 -84 -5 -113 -4 -28 0 -58 -3 -65 -8 -6 -4 -23 -8 -37
-9 -14 -1 -47 -7 -75 -13 -27 -7 -72 -16 -100 -21 -70 -13 -114 -25 -155 -42
-36 -15 -40 -15 -125 -1 -37 6 -51 13 -53 27 -3 14 0 17 12 13 8 -3 18 -2 21
3 4 6 1 10 -5 10 -7 0 -10 7 -6 15 4 11 -1 15 -19 15 -26 0 -34 -14 -12 -24 6
-3 2 -3 -10 -1 -12 3 -24 1 -27 -4 -4 -5 -27 -13 -53 -17 -25 -4 -71 -20 -101
-36 -30 -15 -57 -26 -60 -23 -3 2 9 27 26 55 17 28 29 56 27 63 -7 18 32 77
52 77 13 0 14 -3 5 -12 -20 -20 -14 -28 19 -28 41 0 68 16 81 48 l11 27 7 -25
c8 -24 15 -11 10 19 -1 9 4 12 15 7 13 -4 16 -2 12 9 -8 19 15 63 31 57 6 -2
12 4 12 13 0 9 -4 14 -9 10 -5 -3 -13 -1 -16 5 -5 8 -11 7 -21 -1 -24 -20 -16
7 12 40 37 45 49 49 155 56 52 3 112 10 134 15 41 9 248 29 365 35 55 3 141 9
270 20 148 12 664 29 844 27 222 -3 230 -3 256 -26 43 -36 196 -207 228 -254
l28 -43 120 -4 c138 -4 240 -27 350 -80 197 -95 361 -293 415 -502 96 -379
-76 -751 -426 -923 -44 -22 -105 -46 -135 -54 -36 -9 -54 -19 -52 -27 8 -33
25 -39 116 -38 140 2 216 -25 216 -78 0 -33 -21 -115 -33 -131 -6 -7 -19 -11
-29 -9 -22 6 -34 -11 -19 -26 16 -16 14 -44 -4 -51 -23 -8 -18 -40 10 -64 l25
-22 -21 -40 c-30 -57 -79 -78 -79 -35 0 21 -39 43 -92 50 -38 6 -56 3 -92 -15
-25 -12 -53 -19 -63 -16 -14 4 -25 -7 -47 -47 -50 -90 -211 -249 -283 -279
-48 -20 -342 -47 -393 -37 -21 5 -39 4 -47 -3 -7 -6 -24 -8 -38 -5 -16 2 -34
-2 -47 -12 -15 -13 -32 -16 -67 -11 -25 3 -71 4 -101 2 -97 -6 -163 -6 -225 2
-33 5 -77 8 -98 7 -20 -1 -47 3 -58 9 -15 9 -24 8 -35 -1 -8 -6 -14 -8 -14 -3
0 5 -4 3 -9 -5 -6 -9 -16 -11 -27 -7 -11 4 -20 7 -22 6 -11 -3 -60 33 -57 43
6 15 -13 40 -43 56 -12 7 -20 16 -17 21 3 4 1 20 -5 35 -9 23 -8 26 5 21 8 -3
15 -1 15 5 0 6 13 1 29 -10 32 -23 41 -26 41 -11 0 6 -6 10 -13 10 -29 0 -49
39 -55 105 -3 46 -8 63 -15 56 -14 -14 -17 -73 -5 -88 6 -7 8 -18 6 -25 -3 -7
-15 7 -28 31 -18 35 -20 49 -11 63 9 15 7 19 -14 24 -15 4 -32 1 -40 -6 -12
-10 -15 -9 -15 4 0 10 -9 16 -24 16 -13 0 -33 3 -43 6 -13 4 -14 3 -5 -3 10
-8 4 -18 -24 -46 -38 -37 -94 -55 -133 -42 -15 4 -23 -1 -33 -22 -13 -26 -18
-28 -68 -26 -93 3 -155 39 -192 111 l-26 52 -15 -24 c-10 -15 -29 -25 -53 -29
-52 -9 -53 -2 -5 22 50 26 94 86 81 111 -5 10 -6 20 -3 24 8 8 -40 8 -61 0 -8
-3 -12 -12 -9 -20 9 -23 -15 -42 -80 -66 -37 -13 -62 -29 -65 -40 -5 -21 -22
-24 -22 -4 0 20 26 39 87 61 98 36 53 59 -95 49 -88 -6 -94 -8 -103 -32 -15
-40 -8 -67 20 -67 22 0 23 -4 27 -71 4 -84 -8 -101 -70 -106 l-39 -3 26 -31
26 -30 -77 -23 c-99 -29 -142 -55 -142 -87 0 -14 10 -30 25 -40 117 -76 691
-143 1235 -144 l196 0 10 -80 c27 -197 173 -355 363 -390 35 -7 1305 -10 3717
-10 l3664 0 0 2725 0 2725 -3869 0 -3868 0 -7 -46z m-999 -858 c-2 -5 -13 -16
-25 -24 -21 -13 -22 -13 -22 9 0 13 3 35 7 48 l6 24 18 -24 c10 -13 17 -28 16
-33z m83 -147 c13 -24 16 -39 9 -39 -6 0 -33 -16 -59 -35 -26 -19 -50 -35 -53
-35 -3 0 11 36 30 80 20 43 40 77 45 74 4 -3 17 -23 28 -45z m523 -34 l46 -75
-192 -198 c-192 -197 -245 -246 -196 -181 72 96 72 95 59 119 -9 17 -9 25 3
38 7 9 60 97 116 195 57 97 106 177 111 177 4 0 28 -34 53 -75z m-447 -107
l16 -31 -53 -49 c-66 -59 -113 -95 -108 -81 11 27 114 193 121 193 4 0 15 -14
24 -32z m569 -94 c15 -25 25 -46 23 -47 -2 -1 -75 -72 -162 -157 -87 -85 -155
-148 -151 -140 20 36 255 390 259 390 2 0 16 -21 31 -46z m-785 -19 c0 -7 -91
-155 -96 -155 -2 0 -2 12 2 28 18 81 26 102 38 102 8 0 19 7 26 15 12 14 30
20 30 10z m303 -48 l24 -44 -110 -104 c-61 -57 -122 -113 -135 -123 l-25 -19
13 23 c21 39 199 310 204 310 2 0 15 -20 29 -43z m566 -172 c-100 -108 -183
-194 -186 -192 -2 3 149 297 163 316 2 2 10 -4 19 -13 9 -9 20 -16 25 -16 5 0
42 27 82 59 40 33 74 55 76 50 2 -5 -78 -97 -179 -204z m-835 3 c-44 -72 -196
-300 -199 -297 -5 5 30 172 39 187 4 7 13 12 19 12 7 0 41 25 75 55 64 55 80
66 66 43z m891 -109 c-40 -78 -85 -152 -97 -157 -5 -2 -8 -10 -8 -18 0 -17
-72 -167 -84 -176 -11 -8 -175 -22 -181 -16 -3 2 12 22 33 44 56 59 186 201
282 307 47 52 86 93 88 92 2 -2 -13 -36 -33 -76z m-501 49 c-4 -7 -54 -84
-112 -171 -68 -102 -115 -163 -133 -173 -31 -15 -40 -30 -13 -20 15 6 15 4 -1
-20 -9 -14 -15 -37 -12 -50 4 -21 1 -24 -29 -24 -35 0 -46 16 -19 26 23 9 18
23 -7 17 -22 -4 -23 -4 -4 11 11 9 17 16 14 16 -4 0 -13 3 -22 6 -9 4 -16 1
-16 -6 0 -12 -39 -49 -52 -50 -24 -1 13 43 199 236 114 118 209 214 211 214 2
0 0 -6 -4 -12z m606 -52 l-21 -21 18 39 c13 27 19 34 21 21 2 -10 -6 -27 -18
-39z m-435 -67 c-45 -88 -124 -169 -167 -169 -21 0 -27 4 -22 13 8 13 216 227
221 227 2 0 -13 -32 -32 -71z m535 2 c0 -6 -4 -12 -9 -16 -16 -9 -111 -216
-111 -241 0 -23 -3 -24 -75 -24 -41 0 -75 3 -75 8 0 4 46 59 101 122 55 63
108 125 119 138 19 22 50 30 50 13z m118 -142 c-17 -35 -34 -77 -37 -94 -6
-28 -10 -30 -60 -33 l-54 -3 28 33 c46 55 150 166 152 164 2 -2 -11 -31 -29
-67z m185 -33 l-28 -86 -53 0 -54 0 27 31 c79 95 129 149 133 145 2 -3 -9 -43
-25 -90z m-1501 -58 c-115 -154 -111 -150 -130 -146 -32 7 -7 118 26 118 10 0
56 35 102 79 47 43 87 77 89 75 2 -2 -37 -59 -87 -126z m1682 57 c-5 -35 -3
-45 15 -57 11 -8 18 -18 14 -21 -8 -8 -133 -9 -133 -2 0 3 18 34 41 70 47 75
72 80 63 10z m-1126 -13 c-1 -5 -14 -34 -28 -64 l-25 -56 -55 -6 c-30 -4 -72
-9 -92 -12 -21 -3 -38 -2 -38 3 0 5 22 30 48 56 37 37 63 52 113 66 75 23 82
24 77 13z m1308 -28 c24 -14 44 -28 44 -30 0 -2 -41 -4 -90 -4 l-90 0 32 30
c41 36 48 37 104 4z m-2143 -616 c-8 -44 -73 -121 -88 -106 -7 6 38 92 60 115
28 30 35 28 28 -9z m197 28 c0 -3 -4 -8 -10 -11 -5 -3 -10 -1 -10 4 0 6 5 11
10 11 6 0 10 -2 10 -4z m60 -21 c0 -8 -4 -15 -9 -15 -13 0 -22 16 -14 24 11
11 23 6 23 -9z m1580 -5 c13 -8 13 -14 -4 -44 -10 -19 -16 -40 -14 -48 3 -7
-6 -21 -19 -32 -17 -13 -23 -25 -19 -40 4 -15 -1 -26 -14 -34 -11 -7 -20 -19
-20 -27 0 -8 -5 -15 -11 -15 -14 0 -3 -49 17 -71 8 -8 14 -19 14 -24 0 -4 8
-14 18 -22 16 -14 16 -14 -1 -9 -24 8 -12 -11 16 -25 17 -9 20 -9 10 1 -6 7
-9 19 -6 26 6 16 33 19 33 5 0 -5 11 -23 25 -39 25 -29 24 -52 -2 -31 -19 16
-16 -1 4 -23 9 -10 14 -20 12 -23 -8 -7 -49 7 -44 15 6 9 -36 54 -53 58 -7 1
-12 -2 -12 -7 0 -6 -9 -9 -20 -8 -11 1 -20 4 -20 8 0 12 -40 52 -46 46 -4 -3
1 -13 10 -22 9 -9 16 -20 16 -24 0 -4 12 -13 27 -20 21 -10 24 -14 13 -21 -8
-5 -17 -5 -20 -1 -3 4 -19 14 -37 21 -17 8 -29 18 -26 23 5 9 -25 36 -41 37
-4 0 -5 -8 -2 -17 4 -9 -5 -4 -19 11 -14 15 -22 32 -19 38 5 7 1 9 -9 5 -11
-4 -17 -1 -17 7 0 15 -21 26 -49 26 -14 0 -17 -6 -13 -25 4 -22 1 -25 -24 -25
-19 0 -25 -3 -16 -8 7 -5 10 -16 6 -25 -8 -22 -24 -12 -24 15 0 18 -2 19 -17
7 -15 -13 -15 -12 -4 8 7 14 17 20 26 17 8 -4 15 -1 15 5 0 6 -4 11 -10 11 -5
0 -10 6 -10 13 0 7 -9 18 -20 25 -11 7 -20 19 -20 26 0 8 -4 16 -10 18 -12 4
-1 48 12 48 5 0 7 -12 6 -26 -4 -36 19 -42 33 -10 7 14 17 26 23 25 25 -3 36
2 36 17 0 11 6 13 19 9 13 -4 23 0 30 12 6 10 11 14 12 8 1 -5 2 -14 4 -20 1
-5 3 -16 3 -24 1 -7 8 -11 16 -8 8 3 16 -2 19 -14 3 -10 11 -19 17 -19 7 0 10
6 7 14 -5 13 14 27 56 40 10 3 17 15 17 31 0 14 6 25 13 25 14 0 45 -19 35
-21 -5 -1 -12 -3 -18 -4 -5 -1 -13 -3 -17 -4 -13 -2 21 -21 37 -21 9 0 16 9
17 22 1 11 8 25 15 29 14 9 1 16 -42 21 -22 3 -25 8 -25 48 -1 25 3 51 8 58
11 14 95 16 117 2z m-1550 -45 c-32 -18 -40 -18 -40 0 0 10 10 15 33 15 l32
-1 -25 -14z m950 -110 c6 -8 9 -23 5 -35 -6 -19 -20 -24 -57 -21 -29 3 -18
-66 10 -71 11 -2 17 -15 17 -41 2 -39 -3 -45 -23 -25 -9 9 -12 9 -12 0 0 -7
-5 -12 -11 -12 -5 0 -7 4 -4 10 3 5 -12 27 -34 49 -37 36 -41 38 -55 22 -9
-10 -16 -23 -16 -29 0 -7 -9 -12 -20 -12 -24 0 -26 -16 -4 -28 14 -8 13 -10
-5 -15 -21 -5 -22 -3 -15 56 8 75 18 90 54 82 24 -5 27 -3 23 17 -5 28 34 59
48 37 6 -11 11 -10 26 3 16 14 38 25 54 27 4 1 12 -6 19 -14z m144 -11 c4 -10
1 -14 -6 -12 -15 5 -23 28 -10 28 5 0 13 -7 16 -16z m511 6 c4 -6 2 -17 -4
-24 -6 -7 -9 -20 -6 -28 3 -8 -1 -27 -9 -43 -10 -19 -12 -34 -5 -46 13 -25 13
-25 -24 -24 -60 2 -76 26 -29 43 15 6 22 11 15 11 -7 1 -10 8 -7 16 4 8 2 15
-4 15 -15 0 -22 41 -9 54 32 32 71 44 82 26z m-545 -24 c0 -8 -7 -22 -16 -30
-10 -11 -11 -16 -3 -16 8 0 5 -7 -6 -20 -24 -26 -32 -25 -37 4 -3 15 0 27 8
30 8 3 14 12 14 20 0 8 8 17 18 19 9 3 18 5 20 6 1 0 2 -5 2 -13z m-506 -40
c-3 -9 -16 -16 -28 -16 -21 1 -21 1 3 21 26 22 35 20 25 -5z m-154 -26 c30
-33 29 -43 -6 -34 -18 5 -24 2 -24 -11 0 -9 -6 -15 -12 -12 -7 2 -12 10 -10
17 1 7 -5 18 -15 25 -10 7 -16 15 -13 17 13 9 45 27 48 27 2 1 16 -12 32 -29z
m100 14 c0 -2 -7 -4 -15 -4 -8 0 -15 4 -15 10 0 5 7 7 15 4 8 -4 15 -8 15 -10z
m194 -20 c-15 -19 -30 -34 -35 -34 -17 0 -21 23 -5 32 9 5 16 14 16 21 0 7 11
13 25 13 l24 2 -25 -34z m-86 -5 c-2 -6 -8 -10 -13 -10 -5 0 -11 4 -13 10 -2
6 4 11 13 11 9 0 15 -5 13 -11z m-594 -60 c-3 -5 -10 -7 -15 -3 -5 3 -7 10 -3
15 3 5 10 7 15 3 5 -3 7 -10 3 -15z m551 11 c9 -15 -31 -53 -49 -47 -20 8 -20
21 -1 37 10 9 15 9 15 1 0 -6 5 -11 11 -11 6 0 9 7 5 15 -6 17 9 21 19 5z
m405 -2 c0 15 42 6 48 -9 2 -5 10 -9 19 -9 27 0 44 -26 34 -53 -10 -26 -31
-45 -31 -29 0 5 -10 12 -22 15 -17 5 -19 9 -9 21 10 12 7 13 -24 6 -33 -8 -35
-6 -43 24 -9 32 5 56 20 33 6 -9 8 -9 8 1z m-990 -18 c0 -11 -4 -20 -9 -20
-14 0 -23 18 -16 30 10 17 25 11 25 -10z m-47 -6 c11 -11 -3 -24 -18 -18 -8 4
-12 10 -9 15 6 11 18 12 27 3z m510 -9 c-3 -9 -8 -14 -10 -11 -3 3 -2 9 2 15
9 16 15 13 8 -4z m367 5 c0 -5 -5 -10 -11 -10 -5 0 -7 5 -4 10 3 6 8 10 11 10
2 0 4 -4 4 -10z m-215 -18 c-3 -3 -11 0 -18 7 -9 10 -8 11 6 5 10 -3 15 -9 12
-12z m265 -3 c0 -7 10 -9 25 -7 19 4 25 1 25 -13 0 -11 -7 -19 -15 -19 -8 0
-15 -9 -15 -20 0 -12 -7 -20 -16 -20 -10 0 -14 6 -10 15 3 10 -3 17 -19 21
-30 7 -30 8 -8 34 19 22 33 26 33 9z m780 -3 c0 -3 -4 -8 -10 -11 -5 -3 -10
-1 -10 4 0 6 5 11 10 11 6 0 10 -2 10 -4z m-1430 -16 c-20 -13 -33 -13 -25 0
3 6 14 10 23 10 15 0 15 -2 2 -10z m500 0 c0 -5 -4 -10 -10 -10 -5 0 -10 5
-10 10 0 6 5 10 10 10 6 0 10 -4 10 -10z m400 -19 c0 -12 -20 -25 -27 -18 -7
7 6 27 18 27 5 0 9 -4 9 -9z m108 -14 c2 -10 -3 -17 -12 -17 -9 0 -16 2 -16 4
0 2 -3 12 -6 21 -5 13 -2 16 12 13 10 -2 20 -11 22 -21z m-548 9 c0 -3 -4 -8
-10 -11 -5 -3 -10 -1 -10 4 0 6 5 11 10 11 6 0 10 -2 10 -4z m840 -46 c0 -5
-7 -10 -15 -10 -8 0 -15 5 -15 10 0 6 7 10 15 10 8 0 15 -4 15 -10z m-788
-1625 c3 -14 2 -25 -3 -25 -12 0 -49 52 -43 61 9 16 41 -9 46 -36z"/>
<path d="M11510 2666 c0 -9 5 -16 10 -16 6 0 10 4 10 9 0 6 -4 13 -10 16 -5 3
-10 -1 -10 -9z"/>
<path d="M11550 2662 c0 -11 37 -32 44 -25 3 3 -2 12 -12 19 -19 15 -32 18
-32 6z"/>
<path d="M11720 2622 c0 -5 7 -17 15 -28 15 -19 20 -8 9 20 -6 17 -24 22 -24
8z"/>
<path d="M11711 2564 c0 -11 3 -14 6 -6 3 7 2 16 -1 19 -3 4 -6 -2 -5 -13z"/>
<path d="M11164 3295 c-4 -10 -13 -14 -23 -10 -12 5 -13 3 -5 -5 13 -13 79
-18 91 -7 9 9 -6 23 -35 32 -16 4 -24 2 -28 -10z"/>
<path d="M11361 3297 c-16 -16 -14 -27 5 -27 8 0 12 4 9 10 -3 6 1 7 9 4 9 -3
16 -2 16 4 0 15 -26 22 -39 9z"/>
<path d="M11280 3289 c0 -5 5 -9 10 -9 6 0 12 0 15 0 14 0 8 13 -7 16 -10 1
-18 -2 -18 -7z"/>
<path d="M11730 3290 c0 -5 5 -10 11 -10 5 0 7 5 4 10 -3 6 -8 10 -11 10 -2 0
-4 -4 -4 -10z"/>
<path d="M10380 3265 c-7 -9 -11 -18 -8 -20 3 -3 11 1 18 10 7 9 11 18 8 20
-3 3 -11 -1 -18 -10z"/>
<path d="M10780 3269 c0 -6 -9 -22 -20 -36 -27 -34 -26 -37 16 -52 32 -11 37
-11 49 6 20 25 18 35 -4 28 -14 -4 -20 1 -24 22 -3 16 0 31 6 35 8 5 6 8 -5 8
-10 0 -18 -5 -18 -11z m10 -65 c0 -8 -4 -14 -10 -14 -5 0 -10 9 -10 21 0 11 5
17 10 14 6 -3 10 -13 10 -21z"/>
<path d="M11119 3248 c-9 -31 -5 -46 19 -65 l27 -23 -25 -1 c-39 -1 -55 -5
-86 -24 -16 -9 -20 -13 -9 -9 11 4 33 6 48 5 45 -2 89 27 102 68 6 20 4 23 -9
18 -9 -4 -16 -2 -16 4 0 6 -9 7 -22 3 -20 -6 -21 -5 -9 10 12 14 11 16 -3 16
-9 0 -16 -1 -17 -2z"/>
<path d="M10590 3228 c0 -18 -48 -22 -67 -6 -9 7 -13 7 -13 -1 0 -6 -4 -11
-10 -11 -15 0 -50 -38 -50 -54 0 -8 -8 -17 -17 -19 -10 -2 -4 -4 14 -3 17 0
29 4 26 9 -2 4 12 7 31 7 44 0 89 17 81 30 -3 6 1 7 9 4 9 -3 16 -1 16 5 0 6
6 11 14 11 18 0 40 26 28 34 -6 3 -13 -1 -16 -10 -6 -15 -8 -15 -26 1 -17 15
-20 16 -20 3z m-60 -58 c0 -5 -4 -10 -10 -10 -5 0 -10 5 -10 10 0 6 5 10 10
10 6 0 10 -4 10 -10z"/>
<path d="M10680 3210 c0 -5 5 -10 10 -10 6 0 10 5 10 10 0 6 -4 10 -10 10 -5
0 -10 -4 -10 -10z"/>
<path d="M11080 3185 c7 -9 15 -13 17 -11 7 7 -7 26 -19 26 -6 0 -6 -6 2 -15z"/>
<path d="M9603 2978 c-91 -114 -111 -161 -79 -187 21 -17 40 -4 63 42 11 23
42 68 67 100 51 62 58 100 20 105 -16 2 -34 -13 -71 -60z"/>
<path d="M12210 3009 c0 -5 9 -9 20 -9 11 0 20 2 20 4 0 2 -9 6 -20 9 -11 3
-20 1 -20 -4z"/>
<path d="M12262 3005 c3 -3 15 -7 27 -10 11 -2 25 -6 30 -9 12 -8 41 3 41 15
0 5 -23 9 -52 9 -28 0 -49 -2 -46 -5z"/>
<path d="M9816 2948 c-47 -53 -117 -185 -152 -286 -17 -49 -17 -53 -1 -69 27
-28 45 -7 87 99 43 107 54 127 119 211 36 47 43 62 34 75 -19 31 -40 24 -87
-30z"/>
<path d="M12176 2793 c5 -5 12 -12 16 -18 4 -6 8 -2 8 8 0 9 -7 17 -17 17 -9
0 -12 -3 -7 -7z"/>
<path d="M12327 2593 c-4 -3 -7 -35 -7 -70 l0 -63 33 0 c17 0 37 4 44 8 21 13
33 60 23 87 -12 33 -74 58 -93 38z m61 -60 c2 -11 -4 -26 -13 -33 -13 -11 -15
-8 -15 25 0 39 22 46 28 8z"/>
<path d="M12771 2591 c-18 -11 -5 -31 20 -31 24 0 24 -11 -2 -44 -20 -26 -49
-35 -49 -16 0 6 -10 15 -22 19 l-23 9 25 10 c22 9 23 11 8 17 -10 4 -25 5 -33
1 -23 -8 -18 -45 8 -56 12 -5 16 -9 10 -9 -24 -2 -28 -3 -40 -13 -16 -13 -28
14 -19 38 9 22 -11 44 -40 44 -22 0 -24 -4 -24 -51 0 -42 -3 -52 -20 -56 -20
-5 -25 -15 -15 -25 3 -3 45 3 93 13 48 10 109 18 136 19 32 0 56 6 68 17 17
15 18 15 18 0 0 -27 55 -22 77 7 23 31 89 43 118 22 20 -14 20 -15 -5 -24 -22
-9 -23 -11 -7 -17 9 -4 24 -5 32 -1 20 7 19 45 -2 53 -15 6 -15 7 3 14 32 13
42 10 37 -10 -7 -26 14 -61 36 -61 28 0 44 26 39 61 -4 25 -1 33 14 37 18 4
23 14 13 24 -5 5 -169 -24 -237 -42 -26 -8 -44 -7 -64 2 l-27 13 24 5 c36 9
30 34 -8 38 -31 3 -32 2 -35 -40 -3 -37 -7 -43 -27 -46 -18 -3 -22 0 -17 12 3
9 9 22 12 30 12 30 -43 57 -75 37z m-141 -65 c0 -3 -4 -8 -10 -11 -5 -3 -10
-1 -10 4 0 6 5 11 10 11 6 0 10 -2 10 -4z m540 -16 c0 -11 -4 -20 -10 -20 -5
0 -10 9 -10 20 0 11 5 20 10 20 6 0 10 -9 10 -20z m-540 -41 c0 -5 -4 -9 -10
-9 -5 0 -10 7 -10 16 0 8 5 12 10 9 6 -3 10 -10 10 -16z"/>
<path d="M12455 2536 c-16 -23 -11 -54 9 -68 19 -13 56 -9 56 6 0 10 -7 12
-22 8 -14 -3 -19 -2 -14 6 4 7 14 12 22 12 20 0 29 27 14 45 -18 22 -47 18
-65 -9z m45 -10 c0 -3 -4 -8 -10 -11 -5 -3 -10 -1 -10 4 0 6 5 11 10 11 6 0
10 -2 10 -4z"/>
<path d="M12987 2465 c-3 -20 -1 -25 12 -23 9 2 17 13 19 26 5 31 -24 29 -31
-3z"/>
<path d="M12240 2330 c0 -47 3 -60 15 -60 8 0 15 8 15 18 0 9 10 22 22 27 47
21 26 75 -29 75 -21 0 -23 -4 -23 -60z m50 21 c0 -6 -4 -13 -10 -16 -5 -3 -10
1 -10 9 0 9 5 16 10 16 6 0 10 -4 10 -9z"/>
<path d="M12357 2349 c-22 -13 -23 -67 -1 -76 24 -9 49 10 52 40 4 31 -24 51
-51 36z m23 -34 c0 -8 -4 -15 -10 -15 -5 0 -10 7 -10 15 0 8 5 15 10 15 6 0
10 -7 10 -15z"/>
<path d="M12434 2334 c3 -9 6 -27 6 -40 0 -15 6 -24 15 -24 10 0 15 10 15 30
0 17 5 30 10 30 6 0 10 5 10 10 0 6 -14 10 -31 10 -24 0 -30 -3 -25 -16z"/>
<path d="M12537 2344 c-4 -4 -7 -22 -7 -41 0 -28 3 -33 25 -33 24 0 24 -1 27
-102 l3 -103 38 -3 38 -3 -3 143 -3 143 -55 3 c-31 2 -59 0 -63 -4z"/>
<path d="M12749 2321 c-22 -23 -29 -39 -29 -69 0 -57 26 -86 79 -86 25 -1 41
-6 41 -13 0 -18 -33 -32 -66 -30 -26 2 -29 -1 -29 -28 0 -28 3 -30 39 -33 46
-4 87 11 104 39 21 34 33 117 22 162 -19 85 -103 115 -161 58z m89 -74 c3 -22
-1 -27 -18 -27 -23 0 -35 22 -26 46 10 25 41 12 44 -19z"/>
<path d="M10847 2313 c-16 -15 -6 -33 18 -33 27 0 32 9 13 28 -14 14 -22 15
-31 5z"/>
<path d="M9315 2284 c-55 -19 -130 -78 -182 -143 -62 -75 -43 -78 23 -3 62 69
125 117 170 128 l28 7 -19 -29 c-74 -113 -104 -184 -76 -184 6 0 11 7 11 15 0
23 36 91 86 163 40 57 42 62 21 61 -12 0 -40 -7 -62 -15z"/>
<path d="M10931 2225 c-31 -36 -46 -74 -39 -96 3 -8 27 -12 72 -12 70 1 92 8
65 24 -22 11 -32 54 -20 78 7 12 6 22 -1 29 -21 21 -45 13 -77 -23z"/>
<path d="M12450 2241 c0 -5 -9 -13 -21 -16 -42 -14 -44 -75 -3 -94 32 -14 31
-35 0 -29 -27 6 -42 -15 -23 -30 28 -22 59 -21 83 3 13 13 24 31 24 39 0 16
-26 46 -41 46 -5 0 -9 7 -9 16 0 10 6 14 14 11 8 -3 17 2 21 11 3 9 1 18 -5
20 -6 2 -17 10 -25 19 -8 8 -15 10 -15 4z m0 -66 c0 -8 -4 -15 -10 -15 -5 0
-10 7 -10 15 0 8 5 15 10 15 6 0 10 -7 10 -15z m25 -54 c3 -5 1 -12 -5 -16 -5
-3 -10 1 -10 9 0 18 6 21 15 7z"/>
<path d="M10837 2213 c-4 -15 -9 -38 -13 -49 -5 -19 -2 -21 19 -17 23 5 25 9
20 42 -7 48 -19 59 -26 24z"/>
<path d="M11047 2233 c-11 -11 -8 -71 4 -79 6 -3 34 -6 63 -6 48 0 49 0 21
-10 -56 -20 -65 -31 -51 -59 8 -16 19 -23 34 -21 15 2 22 -2 22 -13 0 -9 5
-13 10 -10 16 10 12 40 -8 58 -10 10 -21 16 -23 15 -2 -2 -1 1 3 7 12 14 198
20 198 6 0 -7 -4 -9 -10 -6 -5 3 -10 2 -10 -4 0 -5 13 -18 29 -27 17 -10 28
-21 25 -25 -6 -10 -44 1 -44 14 0 6 -2 8 -5 5 -11 -11 8 -38 27 -38 25 0 78
-37 78 -54 0 -8 20 -19 45 -26 25 -7 48 -17 51 -21 8 -13 24 -11 24 4 -1 17
-41 63 -62 70 -29 10 -21 26 18 33 20 4 46 17 59 30 12 12 42 28 66 34 24 7
59 21 76 32 31 19 32 20 17 43 -13 20 -21 23 -47 18 -18 -3 -42 -14 -54 -25
-11 -11 -36 -25 -55 -31 -35 -12 -50 -34 -20 -29 10 2 13 0 6 -5 -6 -4 -13
-16 -17 -26 -4 -9 -15 -20 -24 -23 -10 -3 -26 -10 -36 -15 -30 -16 -105 34
-113 76 -4 21 -14 36 -30 44 -24 10 -54 6 -54 -9 0 -31 -90 -8 -109 29 -7 12
-26 23 -49 27 -20 4 -40 11 -43 16 -3 4 -8 5 -12 1z"/>
<path d="M11371 2198 l-11 -33 23 26 c12 15 29 29 37 32 9 3 4 6 -12 6 -21 1
-28 -5 -37 -31z"/>
<path d="M12245 2218 c-3 -8 -5 -46 -3 -84 3 -61 5 -69 23 -69 14 0 21 8 25
30 l5 30 14 -33 c17 -39 48 -41 43 -2 -5 41 -4 54 3 75 9 31 -16 56 -63 62
-31 4 -43 2 -47 -9z m65 -54 c0 -8 -4 -14 -10 -14 -5 0 -10 9 -10 21 0 11 5
17 10 14 6 -3 10 -13 10 -21z"/>
<path d="M13056 2214 c-19 -18 -21 -65 -4 -82 7 -7 23 -12 36 -12 13 0 20 -4
17 -10 -3 -5 -17 -10 -31 -10 -17 0 -24 -5 -24 -20 0 -15 7 -20 28 -20 33 0
45 8 61 37 39 76 -29 172 -83 117z m52 -47 c2 -10 -3 -17 -12 -17 -10 0 -16 9
-16 21 0 24 23 21 28 -4z"/>
<path d="M13200 2210 c-11 -11 -20 -29 -20 -39 0 -25 26 -51 51 -51 29 0 23
-18 -8 -22 -37 -4 -37 -32 0 -36 36 -4 54 11 67 58 22 83 -38 142 -90 90z m50
-40 c0 -11 -4 -20 -9 -20 -14 0 -23 18 -16 30 10 17 25 11 25 -10z"/>
<path d="M11320 2210 c0 -5 4 -10 9 -10 6 0 13 5 16 10 3 6 -1 10 -9 10 -9 0
-16 -4 -16 -10z"/>
<path d="M11512 2208 c-20 -20 -14 -25 30 -25 l41 0 -22 19 c-27 21 -33 22
-49 6z"/>
<path d="M10585 2199 c-10 -15 3 -25 16 -12 7 7 7 13 1 17 -6 3 -14 1 -17 -5z"/>
<path d="M10179 2197 c-1 -4 -2 -10 -3 -14 -1 -5 -5 -14 -9 -20 -12 -18 8 -16
23 2 10 12 10 19 2 27 -7 7 -13 9 -13 5z"/>
<path d="M11800 2180 c0 -5 15 -10 33 -9 27 0 29 2 12 9 -28 12 -45 12 -45 0z"/>
<path d="M10000 2131 c0 -5 6 -12 13 -15 8 -3 5 -11 -11 -25 -18 -16 -28 -18
-55 -10 -17 5 -45 9 -61 9 -23 0 -26 -3 -17 -14 10 -11 -3 -16 -76 -27 -93
-13 -161 -32 -82 -22 41 5 48 3 67 -22 12 -15 22 -35 22 -45 0 -9 8 -25 19
-34 19 -17 32 -89 34 -186 0 -25 2 -37 4 -27 3 9 8 17 13 17 11 0 42 -79 35
-90 -3 -5 2 -13 10 -17 13 -8 10 -15 -18 -48 -34 -39 -35 -39 -73 -27 -32 10
-41 9 -56 -5 -21 -19 -64 -93 -73 -126 -3 -12 9 5 29 38 35 62 86 119 73 83
-5 -14 -1 -18 19 -18 21 0 24 -4 19 -20 -9 -27 7 -26 85 8 80 34 92 41 85 53
-9 13 4 11 19 -3 8 -8 11 -27 8 -55 -3 -28 -1 -43 7 -43 6 0 11 -7 11 -15 0
-8 -5 -15 -11 -15 -7 0 -9 -11 -4 -32 3 -18 7 -49 8 -69 l2 -36 38 13 c21 7
51 21 68 31 29 17 30 17 87 -14 61 -33 53 -33 227 -14 105 12 289 15 610 12
127 -1 237 0 245 3 28 10 222 34 236 29 7 -2 28 7 47 21 19 14 43 26 55 26 26
0 72 -54 72 -86 0 -26 51 -125 83 -161 27 -30 56 -29 130 6 34 17 79 33 99 36
39 6 122 69 145 109 17 29 16 56 -2 56 -8 0 -15 -4 -15 -9 0 -10 -55 -9 -66 1
-4 4 1 20 11 35 11 16 14 28 8 30 -6 2 -9 13 -6 23 4 16 0 20 -19 20 -13 0
-30 -6 -36 -12 -10 -10 -14 -8 -18 9 -10 37 -31 35 -32 -4 -1 -31 1 -35 19
-30 13 4 22 0 25 -11 3 -9 10 -25 15 -34 8 -15 5 -18 -20 -18 -17 0 -34 6 -38
14 -4 8 -17 14 -27 13 -12 -1 -20 5 -21 18 -3 37 -30 80 -50 81 -39 2 -45 4
-45 15 0 5 5 7 11 3 6 -3 14 -2 18 3 4 7 14 7 31 0 36 -15 50 -16 50 -6 0 5 7
9 15 9 23 0 18 18 -10 33 l-26 13 21 19 c24 21 27 40 4 31 -8 -3 -12 -2 -9 4
3 6 14 10 23 10 15 0 15 1 -1 17 -16 16 -18 16 -30 -1 -12 -17 -14 -17 -20 -3
-5 13 2 18 30 23 25 5 38 3 41 -5 2 -6 8 -11 14 -11 6 0 6 6 -2 15 -12 15 -6
35 12 35 5 0 8 -7 5 -15 -4 -8 -2 -17 3 -20 6 -4 10 0 10 8 0 10 7 13 20 10
11 -3 20 -11 20 -18 0 -7 7 -18 15 -25 12 -10 15 -10 15 3 0 8 7 20 15 27 12
10 16 9 22 -6 9 -25 35 -45 51 -39 7 3 12 -4 12 -16 0 -12 4 -17 11 -14 6 4 7
19 4 36 -6 26 -4 29 19 29 30 0 41 -16 37 -52 -1 -14 6 -36 16 -47 20 -24 38
-28 30 -7 -8 21 34 28 61 10 13 -9 30 -31 38 -50 11 -26 20 -34 39 -34 32 0
45 -28 21 -46 -14 -10 -16 -16 -6 -34 10 -19 17 -21 53 -15 104 17 175 57 130
73 -7 2 -13 -4 -13 -13 0 -13 -4 -14 -20 -5 -11 6 -20 16 -20 23 -1 12 -45 67
-54 67 -3 0 -1 -12 4 -26 6 -14 7 -36 4 -50 l-6 -24 -18 22 c-13 17 -15 29 -9
52 11 38 12 36 -5 36 -21 0 -178 83 -262 138 -41 28 -82 48 -90 45 -8 -3 -20
-1 -27 5 -12 10 -81 15 -217 14 -155 -1 -667 -13 -710 -17 -25 -3 -83 -7 -130
-10 -83 -5 -173 -16 -295 -35 -33 -5 -86 -11 -118 -14 -54 -4 -57 -3 -52 15 5
14 2 19 -10 19 -12 0 -16 -6 -12 -19 8 -31 -55 -46 -67 -16 -8 21 -23 19 -29
-5 -4 -15 -14 -20 -40 -20 -20 0 -42 -3 -51 -6 -10 -4 -18 1 -22 12 -4 11 -21
48 -38 84 -23 49 -31 79 -31 122 0 32 -3 58 -6 58 -3 0 -12 36 -19 80 -13 77
-14 79 -32 63 -21 -19 -50 -73 -39 -73 4 0 12 5 19 12 9 9 12 9 12 0 0 -7 -4
-12 -9 -12 -9 0 -12 -8 -30 -63 -8 -23 -6 -30 10 -40 10 -6 19 -18 19 -26 0
-12 -3 -12 -12 -3 -19 19 -45 14 -51 -9 -7 -25 2 -79 14 -95 5 -5 11 -29 14
-52 4 -33 2 -42 -10 -42 -8 0 -15 5 -15 10 0 6 -11 20 -25 32 -14 12 -25 32
-25 45 0 14 -6 23 -15 23 -18 0 -18 -1 -2 -62 7 -26 23 -55 37 -67 l25 -20
-25 -1 c-14 -1 -35 -3 -47 -6 -12 -2 -25 1 -28 6 -3 5 -12 7 -20 3 -19 -7 -18
5 0 37 8 14 14 38 15 55 0 27 -1 28 -16 13 -9 -9 -19 -39 -22 -67 -5 -51 -23
-69 -36 -35 -4 11 -13 14 -30 10 -32 -8 -35 -1 -24 46 6 29 5 43 -3 48 -8 5
-9 29 -4 78 4 46 3 72 -4 76 -8 5 -6 16 4 36 8 16 15 36 15 44 0 9 6 13 14 10
8 -3 16 3 19 15 3 14 0 21 -9 21 -8 0 -17 7 -21 15 -9 25 27 44 85 45 53 0 62
6 40 28 -9 9 -7 17 9 34 l22 23 -70 3 c-40 2 -69 -1 -69 -7z m346 -456 c9 -21
-14 -45 -42 -45 -28 0 -31 16 -7 42 20 22 42 23 49 3z m1564 -10 c0 -8 -4 -15
-10 -15 -5 0 -10 -10 -10 -22 0 -19 2 -20 10 -8 9 13 12 13 21 -2 5 -10 17
-18 24 -18 8 0 15 -4 15 -9 0 -17 -19 -22 -40 -11 -18 10 -19 8 -13 -22 6 -30
5 -32 -11 -19 -9 8 -15 20 -12 28 3 7 1 13 -4 13 -6 0 -10 -7 -10 -15 0 -17
-16 -20 -25 -5 -3 6 -15 10 -26 10 -32 0 -24 36 11 49 17 5 30 17 30 25 0 14
25 35 43 36 4 0 7 -7 7 -15z m-530 -39 c0 -5 -7 -3 -15 4 -8 7 -15 20 -15 28
0 13 3 12 15 -4 8 -10 15 -23 15 -28z m111 6 c-6 -2 -11 -10 -11 -18 0 -8 -5
-14 -11 -14 -5 0 -8 4 -5 9 3 4 11 21 17 37 11 25 13 26 17 9 2 -10 -1 -21 -7
-23z m239 -12 c6 -11 17 -20 24 -20 21 0 40 -27 24 -33 -19 -6 -56 13 -61 32
-3 11 -6 7 -11 -11 -6 -19 -4 -32 5 -40 19 -17 99 -22 99 -7 0 17 13 2 16 -19
2 -9 8 -18 13 -20 6 -2 11 -13 11 -23 0 -11 4 -18 8 -15 5 3 15 -6 23 -21 8
-14 29 -32 47 -40 34 -14 54 -44 34 -51 -6 -2 -8 -10 -5 -19 4 -11 2 -14 -8
-11 -8 3 -13 13 -13 21 1 13 -4 15 -22 11 -15 -4 -33 1 -52 15 -16 11 -33 17
-37 13 -4 -4 -2 3 4 16 9 17 9 22 -2 22 -16 0 -70 54 -61 62 3 4 -4 9 -16 13
-15 5 -26 2 -31 -6 -5 -8 -9 -9 -9 -4 0 6 -13 19 -30 28 -17 10 -30 27 -30 37
0 13 -5 17 -15 14 -16 -7 -18 -3 -9 19 5 13 9 13 32 1 25 -12 27 -12 35 8 9
24 0 39 -12 19 -5 -7 -14 -11 -20 -7 -7 5 -6 14 5 31 13 20 20 23 35 15 10 -6
23 -19 29 -30z m-289 -27 c-8 -15 -10 -15 -11 -2 0 17 10 32 18 25 2 -3 -1
-13 -7 -23z m114 6 c4 -11 4 -23 0 -27 -7 -7 -25 17 -25 36 0 20 18 14 25 -9z
m-145 -48 c0 -9 5 -22 12 -29 9 -9 8 -12 -4 -12 -9 0 -18 -5 -20 -12 -3 -7
-26 -12 -56 -13 -28 -1 -49 2 -47 5 3 4 -2 16 -10 26 -14 18 -15 18 -21 -3 -5
-19 -9 -20 -25 -10 -10 6 -20 23 -20 37 -2 23 -2 24 -6 3 -5 -26 -25 -30 -43
-8 -10 12 -10 15 0 15 7 0 18 8 25 17 11 15 14 14 30 -10 19 -29 42 -35 51
-13 5 14 50 11 70 -5 7 -5 22 -6 34 -1 16 6 19 11 12 16 -7 4 -12 14 -12 23 0
13 3 13 15 3 8 -7 15 -20 15 -29z m-1239 -3 c0 -7 2 -23 5 -35 6 -35 -22 -28
-35 8 -14 41 -14 39 9 39 11 0 20 -6 21 -12z m1299 2 c-20 -13 -40 -13 -40 0
0 6 12 10 28 10 21 0 24 -2 12 -10z m136 -6 c-3 -9 -6 -22 -6 -30 0 -23 -17
-7 -22 21 -4 20 -1 25 14 25 14 0 18 -5 14 -16z m269 -14 c3 -5 2 -10 -4 -10
-5 0 -13 5 -16 10 -3 6 -2 10 4 10 5 0 13 -4 16 -10z m-365 -19 c14 -26 13
-34 -4 -28 -7 3 -18 1 -24 -5 -13 -13 -22 3 -15 30 7 27 29 28 43 3z m185 -33
c6 -6 5 -12 -5 -18 -10 -7 -11 -10 -2 -10 6 0 12 -3 12 -7 0 -5 -20 -8 -45 -9
-30 -1 -45 3 -45 11 0 7 -7 16 -16 19 -8 3 -12 11 -9 17 5 7 14 4 26 -7 19
-17 20 -17 26 4 4 18 10 21 27 16 11 -3 25 -10 31 -16z m-1595 -23 c-7 -9 -15
-13 -18 -10 -3 2 1 11 8 20 7 9 15 13 18 10 3 -2 -1 -11 -8 -20z m1392 -7 c-7
-7 -12 -8 -12 -2 0 14 12 26 19 19 2 -3 -1 -11 -7 -17z m261 0 c18 -12 34 -23
37 -26 9 -7 -34 -32 -57 -32 -20 0 -21 2 -11 25 8 19 8 28 -2 40 -18 21 -3 19
33 -7z"/>
<path d="M10528 2129 c-39 -22 -144 -49 -169 -44 -15 4 -30 1 -34 -4 -8 -14
48 -18 142 -9 18 2 35 7 39 11 4 4 21 7 38 7 17 0 26 4 20 8 -7 4 -13 15 -15
24 -3 13 -8 14 -21 7z"/>
<path d="M10720 2110 c0 -5 7 -10 15 -10 8 0 15 5 15 10 0 6 -7 10 -15 10 -8
0 -15 -4 -15 -10z"/>
<path d="M9764 2095 c11 -8 27 -15 35 -15 11 0 10 4 -5 15 -10 8 -26 14 -34
14 -11 0 -10 -3 4 -14z"/>
<path d="M11031 2094 c0 -11 3 -14 6 -6 3 7 2 16 -1 19 -3 4 -6 -2 -5 -13z"/>
<path d="M10900 2084 c0 -8 5 -12 10 -9 6 4 8 11 5 16 -9 14 -15 11 -15 -7z"/>
<path d="M12970 2086 c0 -8 -3 -21 -6 -30 -9 -24 23 -20 36 4 6 11 8 25 5 30
-9 15 -35 12 -35 -4z"/>
<path d="M10923 2072 c-3 -13 -11 -21 -17 -19 -14 5 -66 -21 -66 -33 0 -13 17
-13 26 1 3 6 14 9 24 6 11 -3 21 2 24 10 3 8 10 11 16 8 15 -9 25 24 11 38 -9
9 -13 6 -18 -11z"/>
<path d="M11013 2029 c2 -31 7 -61 11 -68 5 -8 -5 -10 -38 -7 -25 3 -46 0 -46
-5 0 -5 4 -9 10 -9 5 0 7 -6 5 -12 -3 -7 4 -40 14 -73 13 -41 16 -66 10 -77
-7 -12 -6 -18 2 -18 7 0 9 -10 5 -27 -3 -16 -3 -22 0 -15 5 10 9 10 20 1 10
-8 18 -8 27 0 10 8 17 7 25 -1 8 -8 12 -8 12 -1 0 6 11 8 25 5 20 -3 24 -1 19
12 -7 17 11 22 21 6 3 -5 14 -9 23 -9 15 1 15 2 0 6 -21 5 -24 29 -5 36 6 2 9
8 4 12 -4 5 -16 -1 -27 -13 -11 -11 -36 -24 -56 -28 -31 -6 -39 -3 -55 17 -21
29 -8 50 16 25 9 -9 24 -16 33 -16 13 0 13 2 -4 15 -19 14 -18 14 4 15 12 0
22 -4 22 -8 0 -5 7 -9 15 -9 8 0 15 6 15 14 0 7 7 13 15 13 18 0 11 45 -17
108 -20 45 -34 53 -41 25 -3 -14 -6 -12 -17 10 -12 24 -12 30 0 37 8 5 25 7
37 3 13 -3 23 -1 23 4 0 15 -22 32 -34 27 -7 -3 -18 7 -24 21 -7 15 -17 23
-23 19 -6 -3 -15 0 -20 7 -6 9 -8 -6 -6 -42z"/>
<path d="M10547 2053 c-4 -3 -7 -13 -7 -22 1 -13 3 -13 11 2 11 19 8 33 -4 20z"/>
<path d="M10400 2038 c0 -5 -4 -7 -9 -4 -5 4 -7 -3 -4 -14 3 -12 14 -20 25
-20 14 0 18 5 15 14 -4 10 -1 13 9 9 19 -7 18 -20 -2 -31 -9 -5 -14 -14 -10
-21 10 -16 26 -14 26 3 0 8 4 16 8 18 5 2 12 14 15 28 6 24 4 25 -33 26 -22 1
-40 -3 -40 -8z"/>
<path d="M8937 2014 c-12 -12 -8 -89 7 -131 14 -39 13 -41 -13 -69 -16 -16
-32 -43 -38 -59 -13 -40 -40 -45 -48 -8 -11 46 -14 53 -25 53 -5 0 -10 -7 -10
-15 0 -8 -5 -25 -12 -38 -6 -12 -14 -28 -17 -36 -10 -22 -25 -14 -34 19 -12
47 -66 35 -68 -14 0 -20 -1 -20 -11 2 -16 32 -43 28 -59 -10 l-13 -31 -9 27
c-11 33 -40 32 -45 -2 -2 -12 -7 -22 -12 -22 -4 0 -11 -10 -14 -22 -6 -23 -7
-23 -22 5 -17 31 -42 35 -74 9 -39 -32 -21 -102 26 -102 16 0 110 90 116 110
3 8 8 -2 12 -23 10 -53 37 -46 51 13 11 46 17 45 29 -2 9 -41 34 -35 42 10 10
58 21 70 29 34 9 -44 38 -59 64 -33 10 10 21 25 24 32 4 11 8 10 19 -4 24 -32
61 -18 85 31 0 2 11 -3 23 -10 19 -11 23 -10 40 10 16 19 23 21 40 12 17 -9
24 -7 44 13 16 16 28 21 34 15 12 -12 52 -1 52 13 0 5 10 7 23 4 27 -7 52 16
62 56 10 41 -12 44 -25 4 -6 -19 -17 -35 -25 -35 -15 0 -29 28 -26 53 2 12 -5
17 -23 17 -28 0 -69 -47 -80 -92 -7 -31 -30 -37 -41 -10 -4 9 -8 51 -9 92 -1
41 -9 88 -17 105 -14 29 -38 43 -52 29z m39 -95 c5 -63 -9 -41 -21 31 -5 33
-4 42 4 34 6 -6 14 -35 17 -65z m164 -76 c0 -10 -5 -25 -10 -33 -13 -21 -34 2
-25 29 8 25 35 28 35 4z m-168 -64 c-5 -31 -10 -35 -23 -22 -14 14 -2 56 14
50 7 -2 10 -15 9 -28z m-502 -171 c0 -12 -38 -10 -45 2 -4 6 -4 18 -1 26 5 12
9 12 26 -3 11 -10 20 -21 20 -25z"/>
<path d="M9635 2010 c-3 -5 -16 -11 -28 -11 -17 -1 -18 -2 -5 -6 10 -2 28 3
40 11 12 9 17 16 11 16 -7 0 -15 -4 -18 -10z"/>
<path d="M10195 1999 c-4 -6 -5 -12 -2 -15 2 -3 7 2 10 11 7 17 1 20 -8 4z"/>
<path d="M11357 1979 c-13 -15 -29 -18 -67 -17 -36 2 -53 -2 -62 -14 -7 -9
-22 -18 -33 -21 -16 -3 -13 -7 17 -20 46 -21 58 -21 58 -2 0 23 24 18 54 -11
18 -19 26 -22 26 -12 0 9 9 27 20 41 19 24 28 78 13 76 -5 0 -16 -9 -26 -20z"/>
<path d="M11957 1963 c-15 -14 -5 -20 46 -22 32 -1 48 1 42 7 -13 13 -80 24
-88 15z"/>
<path d="M10210 1936 c0 -28 14 -35 23 -12 3 8 -1 20 -9 26 -12 10 -14 8 -14
-14z"/>
<path d="M10790 1944 c0 -8 5 -12 10 -9 6 4 8 11 5 16 -9 14 -15 11 -15 -7z"/>
<path d="M11906 1943 c-7 -8 -55 -10 -233 -14 -64 -1 -80 -5 -76 -15 3 -8 17
-14 32 -15 71 -2 126 -12 175 -34 56 -25 116 -77 116 -101 0 -16 45 -19 55 -3
8 12 -22 79 -36 79 -6 0 -8 4 -4 9 9 15 -14 24 -60 23 -27 -1 -48 4 -55 13
-10 12 -9 15 10 15 28 0 100 30 100 42 0 10 -14 10 -24 1z"/>
<path d="M10431 1924 c-8 -10 -10 -19 -4 -25 6 -6 14 0 21 16 13 28 4 32 -17
9z"/>
<path d="M10471 1924 c0 -11 3 -14 6 -6 3 7 2 16 -1 19 -3 4 -6 -2 -5 -13z"/>
<path d="M11370 1879 c0 -16 -24 -36 -38 -31 -15 5 -16 -14 -1 -23 6 -4 17 3
26 15 8 12 21 19 29 16 12 -4 12 -2 4 14 -12 22 -20 26 -20 9z"/>
<path d="M8789 1864 c-9 -11 -9 -18 -1 -26 14 -14 42 -3 42 16 0 20 -27 27
-41 10z"/>
<path d="M10817 1874 c-3 -3 1 -13 9 -21 8 -9 18 -12 21 -9 4 4 0 13 -8 21 -8
9 -18 13 -22 9z"/>
<path d="M10711 1836 c-9 -11 -10 -20 -1 -35 14 -28 16 -27 16 14 0 40 0 40
-15 21z"/>
<path d="M11629 1838 c-8 -35 -4 -70 12 -84 11 -10 19 -12 19 -6 0 8 13 10 35
7 32 -4 34 -3 20 11 -9 9 -22 13 -30 10 -8 -3 -15 -1 -15 4 0 6 -5 10 -11 10
-6 0 -9 -7 -6 -14 4 -10 1 -13 -9 -9 -18 7 -18 12 4 36 10 13 11 17 3 12 -11
-6 -13 -4 -8 8 3 10 2 17 -3 17 -6 0 -10 -1 -11 -2z"/>
<path d="M8137 1816 c-96 -35 -153 -130 -127 -213 16 -48 36 -72 77 -89 94
-40 227 15 262 108 17 45 -5 41 -32 -5 -34 -57 -89 -87 -161 -87 -47 0 -61 4
-88 29 -29 26 -33 35 -33 83 0 64 27 109 85 138 72 37 160 18 160 -34 0 -36
-51 -78 -91 -74 -31 3 -34 6 -33 36 1 20 -3 32 -11 32 -31 0 -27 -73 5 -90 29
-15 62 -12 98 10 69 42 72 128 6 156 -41 17 -68 17 -117 0z"/>
<path d="M11420 1812 c0 -4 4 -12 9 -17 5 -6 11 -18 13 -27 3 -16 5 -16 35 -1
19 9 30 20 26 26 -5 8 -8 7 -11 -1 -2 -7 -11 -12 -19 -12 -9 0 -13 6 -10 14 3
8 -1 17 -9 20 -22 8 -34 7 -34 -2z"/>
<path d="M10024 1789 c-3 -6 -1 -16 5 -22 8 -8 11 -5 11 11 0 24 -5 28 -16 11z"/>
<path d="M11360 1760 c0 -6 7 -10 15 -10 8 0 15 2 15 4 0 2 -7 6 -15 10 -8 3
-15 1 -15 -4z"/>
<path d="M11500 1760 c-12 -8 -12 -10 3 -16 21 -8 35 2 21 16 -5 5 -15 6 -24
0z"/>
<path d="M9338 1725 c-7 -7 51 -227 63 -239 21 -23 18 10 -12 123 -30 113 -37
129 -51 116z"/>
<path d="M10030 1624 c0 -8 5 -12 10 -9 6 4 8 11 5 16 -9 14 -15 11 -15 -7z"/>
<path d="M12034 1605 c4 -38 17 -44 14 -7 -1 18 -5 32 -9 32 -4 0 -6 -11 -5
-25z"/>
<path d="M12150 1536 c0 -8 5 -18 10 -21 6 -3 10 1 10 9 0 8 -4 18 -10 21 -5
3 -10 -1 -10 -9z"/>
<path d="M8613 1514 c-9 -25 4 -95 47 -247 52 -183 68 -224 87 -231 23 -9 43
12 43 48 0 32 -31 92 -57 111 -13 10 -11 16 10 48 21 31 27 34 37 22 16 -19
35 -19 54 0 8 8 22 12 31 9 18 -7 55 22 55 43 0 15 16 17 25 3 3 -5 15 -15 26
-20 17 -10 21 -6 34 23 16 39 59 53 91 30 10 -7 23 -13 30 -13 20 0 114 93
114 112 0 11 5 16 10 13 6 -3 10 -15 10 -25 0 -20 25 -50 41 -50 20 0 59 50
59 75 0 36 -17 31 -30 -10 -17 -52 -50 -42 -50 16 0 17 -11 24 -34 20 -4 -1
-14 6 -21 15 -6 9 -17 14 -23 10 -14 -8 -16 -53 -3 -58 5 -2 4 -14 -1 -28 l-9
-25 -15 28 c-8 15 -22 27 -32 27 -21 0 -62 -27 -62 -41 0 -14 -26 -39 -39 -39
-6 0 -16 9 -23 20 -21 32 -38 25 -31 -14 3 -19 1 -42 -5 -52 -10 -17 -11 -17
-20 6 -6 14 -13 33 -16 43 -9 29 -21 19 -40 -33 -10 -27 -24 -50 -31 -50 -15
0 -29 28 -26 53 2 12 -5 17 -22 17 -28 0 -74 -48 -100 -104 -25 -55 -43 -35
-38 42 8 118 1 181 -25 207 -20 19 -43 19 -51 -1z m46 -51 c6 -21 11 -58 10
-83 l-1 -45 -12 45 c-19 68 -26 120 -16 120 5 0 14 -17 19 -37z m491 -85 c0
-12 -38 -10 -45 2 -4 6 -4 18 -1 26 5 12 9 12 26 -3 11 -10 20 -21 20 -25z
m-320 -55 c0 -10 -5 -25 -10 -33 -13 -21 -34 2 -25 29 8 25 35 28 35 4z m-76
-197 c18 -38 21 -66 7 -66 -9 0 -26 35 -41 88 -7 28 -7 32 5 22 7 -6 20 -26
29 -44z"/>
<path d="M12035 1520 c3 -5 8 -10 11 -10 2 0 4 5 4 10 0 6 -5 10 -11 10 -5 0
-7 -4 -4 -10z"/>
<path d="M12857 1513 c-9 -9 -9 -33 1 -33 4 0 13 9 20 20 10 16 10 20 -1 20
-8 0 -17 -3 -20 -7z"/>
<path d="M12332 1499 c2 -7 10 -15 17 -17 8 -3 12 1 9 9 -2 7 -10 15 -17 17
-8 3 -12 -1 -9 -9z"/>
<path d="M12690 1480 c0 -5 5 -10 10 -10 6 0 10 5 10 10 0 6 -4 10 -10 10 -5
0 -10 -4 -10 -10z"/>
<path d="M12302 1439 c-11 -11 -25 -18 -31 -14 -6 3 -11 2 -11 -3 0 -6 8 -13
17 -16 18 -7 65 21 65 39 -1 18 -20 16 -40 -6z"/>
<path d="M9402 1438 c6 -18 28 -21 28 -4 0 9 -7 16 -16 16 -9 0 -14 -5 -12
-12z"/>
<path d="M9827 1443 c-4 -7 -4 -24 1 -87 2 -24 11 -17 18 15 7 30 8 39 6 62
-2 17 -17 23 -25 10z"/>
<path d="M12231 1424 c0 -11 3 -14 6 -6 3 7 2 16 -1 19 -3 4 -6 -2 -5 -13z"/>
<path d="M9875 1409 c-5 -6 -9 -28 -11 -48 -7 -79 -12 -101 -24 -116 -7 -8
-16 -13 -20 -10 -8 5 -21 -26 -24 -55 0 -8 -7 -14 -14 -12 -9 2 -9 -5 2 -25
18 -33 41 -63 48 -63 3 0 8 28 10 63 3 35 15 81 27 104 30 60 88 113 123 113
31 0 34 7 15 31 -16 21 -122 35 -132 18z"/>
<path d="M9665 1371 c-3 -5 -2 -12 3 -15 5 -3 9 1 9 9 0 17 -3 19 -12 6z"/>
<path d="M9706 1351 c-9 -9 -16 -22 -16 -27 0 -5 4 -4 8 2 4 6 15 15 26 21 10
6 14 13 9 16 -6 4 -18 -2 -27 -12z"/>
<path d="M9737 1309 c-3 -12 -10 -18 -16 -14 -6 3 -11 -1 -11 -10 0 -12 5 -15
16 -11 9 3 20 6 25 6 12 0 12 37 0 44 -5 3 -11 -4 -14 -15z"/>
<path d="M9925 1280 c-18 -20 -17 -20 8 -20 14 0 29 5 32 10 3 6 1 10 -5 10
-6 0 -8 5 -5 10 11 18 -11 10 -30 -10z"/>
<path d="M8397 1283 c-12 -11 -8 -51 6 -56 8 -4 9 -8 1 -14 -6 -4 -14 -17 -18
-28 -7 -19 -8 -18 -22 8 -8 15 -22 27 -31 27 -29 0 -82 -44 -89 -72 -7 -36
-24 -46 -24 -15 0 30 -31 60 -54 51 -9 -3 -16 -10 -16 -15 0 -18 -18 -9 -23
12 -9 36 -26 11 -20 -29 3 -20 9 -38 12 -40 4 -1 5 -47 3 -102 -5 -111 7 -160
39 -160 37 0 44 41 22 135 l-20 85 26 0 c32 0 71 25 71 46 0 13 3 13 22 0 12
-9 28 -16 35 -16 19 0 123 105 123 124 0 9 5 14 10 11 6 -3 10 -15 10 -25 0
-20 25 -50 41 -50 20 0 59 50 59 75 0 36 -17 31 -30 -10 -17 -52 -50 -42 -50
16 0 18 -10 23 -36 20 -7 -1 -14 5 -18 14 -6 16 -18 19 -29 8z m-57 -145 c0
-12 -38 -10 -45 2 -4 6 -4 18 -1 26 5 12 9 12 26 -3 11 -10 20 -21 20 -25z
m-150 -8 c0 -20 -5 -30 -15 -30 -16 0 -19 17 -9 44 10 26 24 18 24 -14z m-24
-198 c4 -32 3 -52 -3 -52 -10 0 -23 69 -23 114 1 37 18 -5 26 -62z"/>
<path d="M9883 1200 c-22 -50 -21 -60 7 -60 14 0 18 -5 13 -17 -6 -16 -5 -16
10 -4 9 7 14 17 11 23 -3 5 -9 30 -13 56 l-7 47 -21 -45z"/>
<path d="M12340 1194 c-19 -9 -52 -17 -74 -19 -21 -1 -45 -10 -54 -19 -15 -15
-10 -16 67 -10 101 7 131 17 131 44 0 24 -21 25 -70 4z"/>
<path d="M12443 1195 c-10 -27 6 -30 30 -7 l21 22 -22 0 c-12 0 -25 -7 -29
-15z"/>
<path d="M12573 1198 c21 -7 32 -7 40 1 8 8 0 11 -28 10 -40 -1 -40 -1 -12
-11z"/>
<path d="M10676 1146 c-25 -8 -35 -15 -28 -20 20 -12 13 -45 -12 -62 -24 -15
-44 -69 -32 -81 3 -4 25 -8 49 -9 75 -5 131 -15 144 -26 14 -11 -23 81 -58
145 -21 38 -16 51 7 20 18 -25 26 -12 11 17 -15 29 -29 32 -81 16z"/>
<path d="M12490 1153 c1 -19 16 -31 29 -24 7 5 10 14 7 20 -8 12 -36 15 -36 4z"/>
<path d="M10588 1143 c7 -3 16 -2 19 1 4 3 -2 6 -13 5 -11 0 -14 -3 -6 -6z"/>
<path d="M10788 1138 c8 -8 9 -15 0 -25 -8 -10 -3 -20 26 -44 23 -20 36 -40
36 -55 0 -13 3 -24 6 -24 3 0 38 15 78 34 48 23 80 32 99 29 42 -8 100 6 93
22 -3 8 -1 17 4 20 18 11 11 33 -9 28 -11 -3 -78 2 -150 11 -160 20 -200 21
-183 4z"/>
<path d="M9946 1114 c-9 -23 -8 -24 18 -24 21 0 56 22 56 36 0 2 -15 4 -34 4
-22 0 -36 -6 -40 -16z"/>
<path d="M10036 1116 c3 -8 13 -12 22 -10 11 3 21 -5 29 -22 10 -21 9 -30 -3
-50 -17 -25 -12 -44 13 -44 11 0 9 -5 -8 -21 l-24 -20 27 5 c15 3 30 2 33 -4
7 -11 55 -14 55 -4 0 4 -16 24 -35 45 -39 43 -45 80 -19 117 15 22 15 22 -40
22 -43 0 -54 -3 -50 -14z"/>
<path d="M11189 1106 c30 -32 43 -33 39 -3 -2 16 -11 23 -33 25 l-30 4 24 -26z"/>
<path d="M11675 1117 c-39 -13 -52 -23 -69 -58 -13 -26 -13 -29 1 -29 8 0 26
-9 40 -20 14 -11 30 -17 36 -13 5 3 19 6 31 7 11 1 22 8 24 17 2 12 -7 15 -48
15 -57 0 -80 15 -61 38 7 8 26 17 42 20 16 3 43 9 59 12 17 3 28 9 25 14 -6
10 -44 9 -80 -3z"/>
<path d="M11343 1100 c-2 -8 -9 -23 -14 -32 -8 -15 -5 -18 15 -18 13 0 29 -7
36 -15 20 -24 90 -17 90 9 0 19 57 56 86 56 15 0 24 3 21 6 -4 4 -57 7 -118 8
-92 1 -112 -1 -116 -14z"/>
<path d="M12387 1099 c7 -7 15 -10 18 -7 3 3 -2 9 -12 12 -14 6 -15 5 -6 -5z"/>
<path d="M12460 1103 c-8 -2 -21 -6 -28 -9 -7 -2 -11 -8 -7 -13 7 -12 65 6 65
20 0 10 -7 10 -30 2z"/>
<path d="M12356 1083 c-6 -14 -5 -15 5 -6 7 7 10 15 7 18 -3 3 -9 -2 -12 -12z"/>
<path d="M9886 1073 c-6 -14 -5 -15 5 -6 7 7 10 15 7 18 -3 3 -9 -2 -12 -12z"/>
<path d="M11150 1075 c7 -8 20 -15 28 -15 13 0 12 3 -4 15 -25 19 -40 19 -24
0z"/>
<path d="M11600 1002 c0 -12 19 -26 26 -19 2 2 -2 10 -11 17 -9 8 -15 8 -15 2z"/>
<path d="M11540 963 c0 -10 -3 -28 -6 -39 -5 -19 -2 -21 20 -17 21 4 25 2 22
-19 -1 -13 -6 -30 -10 -37 -5 -8 -2 -19 7 -29 23 -22 47 1 47 44 0 26 4 33 22
36 22 3 21 4 -11 38 -21 23 -34 31 -38 23 -7 -18 -33 -16 -33 2 0 8 -4 15 -10
15 -5 0 -10 -8 -10 -17z"/>
<path d="M11318 803 c7 -3 16 -2 19 1 4 3 -2 6 -13 5 -11 0 -14 -3 -6 -6z"/>
<path d="M11399 781 c26 -26 30 -26 27 -3 -2 9 -13 18 -25 20 l-23 4 21 -21z"/>
</g>
</svg>
